<svg id="a" xmlns="http://www.w3.org/2000/svg" viewBox="0 0 200 204.98">

  <style>

    #brandMark{
      <!-- Matte Green -->
      fill: #47a14c;
    }
    
    @media (prefers-color-scheme: dark) {

      #brandMark{
        <!-- Spotify Green -->
        fill: #1DB954;;
      }

    } 
  </style>

  <g id="brandMark">
    <path d="M.06,169.76c0-8.83-.21-17.66,.13-26.47,.1-2.54,1.17-5.6,2.86-7.45C43.35,91.61,83.76,47.49,124.32,3.5c1.75-1.89,5.04-3.27,7.63-3.32C147.98-.12,164.01,.06,180.05,0c3.66-.01,6.75,.84,8.3,4.5,1.51,3.57,.28,6.43-2.24,9.18C128.76,76.2,71.46,138.74,14.18,201.31c-2.63,2.87-5.51,4.44-9.35,3.01C.93,202.85-.02,199.67,.03,195.8c.11-8.68,.03-17.36,.03-26.04Z"/>

    <path d="M149.15,204.88c-7.94,0-15.9,.3-23.81-.16-2.75-.16-6.11-1.53-7.97-3.49-12.24-12.9-24.15-26.11-36.14-39.25-3.74-4.1-3.72-7.97,.02-12.07,7.83-8.58,15.68-17.13,23.56-25.67,4.32-4.68,8.85-4.64,13.17,.09,20.25,22.11,40.47,44.25,60.78,66.31,2.73,2.97,4.3,6.05,2.62,9.92-1.66,3.81-5.09,4.41-8.86,4.36-7.79-.1-15.59-.03-23.38-.03Z"/>

    <path d="M.06,52.11c0-14.28-.02-28.55,0-42.83C.08,2.51,2.57,.06,9.43,.04,21.06,0,32.69,0,44.31,.04c6.71,.02,9.25,2.61,9.26,9.43,.03,14.87,.16,29.74-.13,44.6-.05,2.65-1.25,5.84-3,7.81-11.86,13.27-24.05,26.24-36.04,39.38-2.72,2.98-5.66,4.77-9.68,3.18C.84,102.91,0,99.68,.03,95.82c.09-14.57,.04-29.14,.04-43.72Z"/>  
  </g>
  
</svg>






