<svg id="Layer_1" data-name="Layer 1" xmlns="http://www.w3.org/2000/svg" xmlns:xlink="http://www.w3.org/1999/xlink" viewBox="0 0 542.13 127.11"><defs><style>.cls-1{fill:url(#linear-gradient);}.cls-2{fill:#e56283;}.cls-3{fill:#e5657f;}.cls-4{fill:#e54f95;}.cls-5{fill:#e5469e;}.cls-6,.cls-7{fill:#ff8c72;}.cls-6{stroke:#ff8c72;stroke-miterlimit:10;stroke-width:3px;}</style><linearGradient id="linear-gradient" x1="13.06" y1="88.33" x2="127.89" y2="203.16" gradientTransform="matrix(1, 0, 0, -1, 0, 290)" gradientUnits="userSpaceOnUse"><stop offset="0" stop-color="#ff49b5"/><stop offset="1" stop-color="#ffbc43"/></linearGradient></defs><path class="cls-1" d="M46.89,83.33a37,37,0,0,1,8.24-1.43q33.46.34,66.94,0a5,5,0,0,1,3.34,6.32c-1.07,3.94-2.74,7.76-3.81,11.7-1.91,5.25-3.58,10.62-5.37,15.87-1.56,5.25-3.82,10.38-5,15.63a37,37,0,0,1,15.16,16.83A41.57,41.57,0,0,1,128.88,159a39.91,39.91,0,0,0,0,6.56c-.24,2-.6,4.18-1,6.21a47.77,47.77,0,0,1-8.71,17.18,49.22,49.22,0,0,1-11.58,10.14,47.33,47.33,0,0,1-11.81,5.25c-7.16,2.15-14.56,1.56-22,1.56s-14.92-.12-22.43,0q-10.22-.18-20.41,0c-5.37-1.2-13.49,2.86-16.59-3.35a51.89,51.89,0,0,1,2.87-18.61,46,46,0,0,1,7-11.94,47,47,0,0,1,8-6.56,39.3,39.3,0,0,1,12.53-5c4.42-.72,8.83-1.55,13.37-1.19,3.46,10.14,6.56,20.4,9.9,30.55.12.83,1.2.47,1.79.47,2.15-5.72,3.82-11.69,5.85-17.42,1.67-4.53,2.86-9.31,4.54-13.84,11,.12,22.07.47,33.05-.12.6-.12.48-1.2.12-1.55-8.59-6.69-18-12.53-26.25-19.46,3.1-10.14,6.56-20.28,9.78-30.43.36-1-1.19-2-1.91-1.19-7.51,5.73-15.39,11-22.79,16.71-1.07.71-2,1.43-3.1,2.15-6.09-4.42-12.17-8.95-18.38-13.25L43,106.12c-.71-.6-2.14,0-1.79,1.08,3.34,10.14,6.69,20.28,9.91,30.43.24.47-.36.83-.72,1.19-5.49,3.7-11.69,6.8-18.49,6.92-3.94-.12-8.12-1.07-11.1-3.94-5.73-5-7.64-12.89-7.76-20.28a36.23,36.23,0,0,1,3.34-13.61,49.27,49.27,0,0,1,10-13.25,55.43,55.43,0,0,1,11.09-7.87C40.69,85.6,43.67,84.16,46.89,83.33Z" transform="translate(-13 -79.9)"/><path class="cls-2" d="M34.48,117.58a2,2,0,0,1,2.63,0c2.74,2,5.6,4.17,8.35,6.2a1.79,1.79,0,0,0,1.07.48C48,127.6,48.8,131.18,50,134.52c.36,1,.6,2,1,3a.79.79,0,0,1-.24,1.07,45.71,45.71,0,0,1-8.47,4.89c-1.32-4.53-2.87-8.95-4.3-13.36-1.19-3.58-2.27-7.16-3.46-10.74Z" transform="translate(-13 -79.9)"/><path class="cls-3" d="M106.92,175H75.29a11.34,11.34,0,0,1,.84-2.87c1.31-4.17,2.62-8.23,3.94-12.41.12-.47.35-.71.83-.71h1.43a1.14,1.14,0,0,0,.84.24h9.9a1,1,0,0,0,.84-.24H95c1.2,1.43,2.87,2.26,4.3,3.34,4.3,3.22,8.71,6.44,13.13,9.55l.71.71a1.19,1.19,0,0,1,.48,1.31,1.3,1.3,0,0,1-1.31,1C110.62,175,108.83,175,106.92,175Z" transform="translate(-13 -79.9)"/><path class="cls-4" d="M41.88,160.9a58.21,58.21,0,0,1,16.35-2.27c3.34,10.26,6.56,20.52,9.9,30.79a1.16,1.16,0,0,0,1.79.48c-.71,3.34-2.14,6.32-2.86,9.66a40.59,40.59,0,0,1-1.43,3.94c-.6.95-1.91.36-2-.6q-4.47-14-9-27.92a18.91,18.91,0,0,0-.84-2.39,5,5,0,0,0-1.91-.12A51,51,0,0,0,34,175.93c-1.91-.59-3.58-1.67-5.49-2.38-1.43-.6-2.86-1-4.29-1.44A36.89,36.89,0,0,1,41.88,160.9Z" transform="translate(-13 -79.9)"/><path class="cls-5" d="M15.39,191.69a39.76,39.76,0,0,1,9-19.58l4.29,1.44c1.91.71,3.58,1.79,5.49,2.38a35.7,35.7,0,0,0-15.87,12.18C17.06,189.3,16.7,190.85,15.39,191.69Z" transform="translate(-13 -79.9)"/><line class="cls-6" x1="143" y1="1.09" x2="143" y2="127.11"/><path class="cls-7" d="M186.2,129.94a20,20,0,0,1-7.27-10.8l9.14-3.6a13.6,13.6,0,0,0,3.67,6.56,9.08,9.08,0,0,0,6.48,2.44,9.42,9.42,0,0,0,5.55-1.62,5.21,5.21,0,0,0,2.3-4.5,5.86,5.86,0,0,0-2.19-4.71c-1.47-1.23-4.07-2.53-7.82-3.93l-3.16-1.15a21.75,21.75,0,0,1-8.5-5.29,12.23,12.23,0,0,1-3.53-9A13.53,13.53,0,0,1,183,87a14.38,14.38,0,0,1,5.9-5.22,19.12,19.12,0,0,1,8.64-1.91q7,0,11,3.28a16.82,16.82,0,0,1,5.54,7.67l-8.56,3.6a8.59,8.59,0,0,0-2.78-4,7.75,7.75,0,0,0-5.07-1.62,8.69,8.69,0,0,0-5.22,1.48,4.53,4.53,0,0,0-2.05,3.85,4.91,4.91,0,0,0,1.94,3.92,20.82,20.82,0,0,0,6.41,3.14L202,102.3a25,25,0,0,1,10.26,6.08,15.45,15.45,0,0,1,1,18.43,15.85,15.85,0,0,1-6.66,5.22,21.29,21.29,0,0,1-8.39,1.73A19.6,19.6,0,0,1,186.2,129.94Z" transform="translate(-13 -79.9)"/><path class="cls-7" d="M234.73,90.27h-14.4V81.06h38.52v9.21h-14.4v42.34h-9.72Z" transform="translate(-13 -79.9)"/><path class="cls-7" d="M276.42,81.06h11.16L307,132.61H296.22L291.9,120.3H272.17l-4.32,12.31H257.12Zm12.31,30.31-4.54-13-1.87-6.19h-.57l-1.88,6.19-4.6,13Z" transform="translate(-13 -79.9)"/><path class="cls-7" d="M313.93,81.06h18.79a18.78,18.78,0,0,1,9,2.08,15.14,15.14,0,0,1,6.09,5.8,16.36,16.36,0,0,1,2.16,8.39,13.64,13.64,0,0,1-3.13,8.82,17.79,17.79,0,0,1-7.89,5.58l-.07.5L352.66,132v.58H341.5l-13.32-19.37h-4.53v19.37h-9.72Zm18.72,23.25a7.46,7.46,0,0,0,5.4-2,6.83,6.83,0,0,0,2.09-5.12,7,7,0,0,0-7.35-7.12h-9.14v14.25Z" transform="translate(-13 -79.9)"/><path class="cls-7" d="M359.58,81.06H372.1l13.68,36.21h.58L400,81.06h12.6v51.55H403V107.19l.58-8.57H403l-13.1,34h-7.56l-13.18-34h-.57l.57,8.57v25.42h-9.57Z" transform="translate(-13 -79.9)"/><path class="cls-7" d="M438.85,81.06H450l19.37,51.55H458.65l-4.32-12.31H434.6l-4.32,12.31H419.55Zm12.31,30.31-4.54-13-1.87-6.19h-.57l-1.88,6.19-4.6,13Z" transform="translate(-13 -79.9)"/><path class="cls-7" d="M488.67,105.68,473.12,81.06h12l10,16.84h.58l9.93-16.84h12.1l-15.63,24.62,16.92,26.93H507L495.73,114h-.58l-11.23,18.58h-12.1Z" transform="translate(-13 -79.9)"/><path class="cls-7" d="M182.6,153.06h18.79a18.84,18.84,0,0,1,9,2.08,15.17,15.17,0,0,1,6.08,5.8,16.36,16.36,0,0,1,2.16,8.39,13.58,13.58,0,0,1-3.13,8.82,17.79,17.79,0,0,1-7.89,5.58l-.07.5L221.34,204v.58H210.18l-13.32-19.37h-4.54v19.37H182.6Zm18.72,23.25a7.46,7.46,0,0,0,5.4-2,6.83,6.83,0,0,0,2.09-5.12,7,7,0,0,0-7.35-7.12h-9.14v14.25Z" transform="translate(-13 -79.9)"/><path class="cls-7" d="M228.25,153.06h32.69v9.21H238v11.95h20.66v9.22H238v11.95h23v9.22H228.25Z" transform="translate(-13 -79.9)"/><path class="cls-7" d="M280.23,202.2a26.14,26.14,0,0,1-9.75-9.72,27.86,27.86,0,0,1,0-27.29,26,26,0,0,1,9.75-9.72,26.91,26.91,0,0,1,13.68-3.57,24.91,24.91,0,0,1,19.3,8.43L306.37,167A15.61,15.61,0,0,0,294,161.12a17.75,17.75,0,0,0-8.78,2.2,15.86,15.86,0,0,0-6.23,6.22,20.14,20.14,0,0,0,0,18.58,15.88,15.88,0,0,0,6.23,6.23,17.84,17.84,0,0,0,8.78,2.19,16.83,16.83,0,0,0,13.61-6.76l6.91,6.55a25.53,25.53,0,0,1-9,7,28.45,28.45,0,0,1-25.24-1.15Z" transform="translate(-13 -79.9)"/><path class="cls-7" d="M332.76,202.2a25.87,25.87,0,0,1-9.69-9.76,28,28,0,0,1,0-27.22,25.84,25.84,0,0,1,9.69-9.75,28.13,28.13,0,0,1,27.43,0,25.89,25.89,0,0,1,9.68,9.75,28,28,0,0,1,0,27.22,25.91,25.91,0,0,1-9.68,9.76,28.2,28.2,0,0,1-27.43,0Zm22.42-7.89a16.09,16.09,0,0,0,6.23-6.26,19.84,19.84,0,0,0,0-18.43,16.12,16.12,0,0,0-6.23-6.27,17.4,17.4,0,0,0-8.71-2.23,17.17,17.17,0,0,0-8.67,2.23,16.24,16.24,0,0,0-6.2,6.27,19.92,19.92,0,0,0,0,18.43,16.22,16.22,0,0,0,6.2,6.26,17.17,17.17,0,0,0,8.67,2.23A17.4,17.4,0,0,0,355.18,194.31Z" transform="translate(-13 -79.9)"/><path class="cls-7" d="M382.62,153.06h18.79a18.8,18.8,0,0,1,9,2.08,15.14,15.14,0,0,1,6.09,5.8,16.36,16.36,0,0,1,2.16,8.39,13.59,13.59,0,0,1-3.14,8.82,17.71,17.71,0,0,1-7.88,5.58l-.07.5L421.35,204v.58H410.19l-13.32-19.37h-4.53v19.37h-9.72Zm18.72,23.25a7.49,7.49,0,0,0,5.4-2,6.82,6.82,0,0,0,2.08-5.12,7,7,0,0,0-7.34-7.12h-9.14v14.25Z" transform="translate(-13 -79.9)"/><path class="cls-7" d="M428.26,153.06h17.43a29.05,29.05,0,0,1,14,3.23,22.75,22.75,0,0,1,9.21,9.08,29.6,29.6,0,0,1,0,26.93,22.72,22.72,0,0,1-9.21,9.07,29.05,29.05,0,0,1-14,3.24H428.26Zm17,42.33q8.34,0,12.74-4.43t4.39-12.13q0-7.7-4.39-12.13t-12.74-4.43H438v33.12Z" transform="translate(-13 -79.9)"/><path class="cls-7" d="M478.3,194.82l26.14-32.55h-25v-9.21h36.28v9.79L489.9,195.39H516v9.22H478.3Z" transform="translate(-13 -79.9)"/><path class="cls-7" d="M530.29,182.79a16.56,16.56,0,0,1-6-6,16.49,16.49,0,0,1,0-16.56,16.63,16.63,0,0,1,6-6.05,16.49,16.49,0,0,1,16.56,0,16.61,16.61,0,0,1,6,6.05,16.42,16.42,0,0,1,0,16.56,16.53,16.53,0,0,1-6,6,16.49,16.49,0,0,1-16.56,0Zm14.86-3a13.14,13.14,0,0,0,4.76-4.78,13.14,13.14,0,0,0,0-13.14,13.24,13.24,0,0,0-4.76-4.76,13.14,13.14,0,0,0-13.14,0,13.14,13.14,0,0,0-4.78,4.76,12.65,12.65,0,0,0-1.77,6.58,12.38,12.38,0,0,0,1.8,6.52,13.9,13.9,0,0,0,4.79,4.79,12.38,12.38,0,0,0,6.52,1.8A12.65,12.65,0,0,0,545.15,179.8ZM533,160.33h6.91a5.16,5.16,0,0,1,3.68,1.51,4.9,4.9,0,0,1,1.58,3.67,4.75,4.75,0,0,1-1,3,4.87,4.87,0,0,1-2.56,1.76l-.14.15,4.32,6.05v.14H542l-4-6h-1.73v6H533Zm6.63,7.2a2.27,2.27,0,0,0,1.58-.58,1.84,1.84,0,0,0,.65-1.44,2,2,0,0,0-.61-1.4,2.1,2.1,0,0,0-1.55-.61h-3.39v4Z" transform="translate(-13 -79.9)"/></svg>