<svg id="Layer_1" data-name="Layer 1" xmlns="http://www.w3.org/2000/svg" xmlns:xlink="http://www.w3.org/1999/xlink" viewBox="0 0 435.78 125.03"><defs><style>.cls-1{opacity:0.9;}.cls-2{fill:url(#linear-gradient);}.cls-3{fill:#ff6698;}.cls-4{fill:#e55d87;}.cls-5{fill:#e54f95;}.cls-6,.cls-7,.cls-8,.cls-9{isolation:isolate;font-size:52.89px;font-family:ProductSans-Black, Product Sans Black;font-weight:800;}.cls-10,.cls-6,.cls-7,.cls-8,.cls-9{fill:#ff8c72;}.cls-6{letter-spacing:-0.01em;}.cls-7{letter-spacing:-0.06em;}.cls-9{letter-spacing:-0.02em;}.cls-10{stroke:#ff8c72;stroke-miterlimit:10;stroke-width:3px;}</style><linearGradient id="linear-gradient" x1="123.83" y1="15.22" x2="220" y2="111.4" gradientTransform="matrix(1, 0, 0, -1, -61.71, 204.77)" gradientUnits="userSpaceOnUse"><stop offset="0" stop-color="#ff49b5"/><stop offset="1" stop-color="#ffbc43"/></linearGradient></defs><g class="cls-1"><path class="cls-2" d="M90.39,90.36a34,34,0,0,1,6.86-1.21q28.07.25,56.12,0a4.18,4.18,0,0,1,2.8,5.21l0,.09c-.87,3.3-2.25,6.46-3.15,9.76-1.55,4.43-3,8.88-4.49,13.34s-3.18,8.71-4.22,13.15A31.17,31.17,0,0,1,157,144.79a39.82,39.82,0,0,1,2.12,9,51.19,51.19,0,0,0,0,5.54c-.19,1.73-.48,3.46-.83,5.17A39.85,39.85,0,0,1,151,178.9a40.56,40.56,0,0,1-9.66,8.49,41.15,41.15,0,0,1-9.9,4.38c-6,1.76-12.23,1.27-18.36,1.33s-12.53,0-18.79,0c-5.69-.07-11.38-.06-17.08,0-4.48-1-11.34,2.41-13.91-2.8a44.19,44.19,0,0,1,2.37-15.59,39,39,0,0,1,5.92-10,44.16,44.16,0,0,1,6.7-5.5A35.48,35.48,0,0,1,88.81,155,47.53,47.53,0,0,1,100,154c2.94,8.47,5.46,17.1,8.27,25.62.14.73,1,.43,1.48.44,1.76-4.83,3.22-9.76,4.86-14.63,1.38-3.83,2.37-7.79,3.81-11.59,9.2.06,18.52.4,27.65-.14.46-.13.38-1,.11-1.27-7.16-5.59-15.06-10.53-22-16.28,2.57-8.53,5.5-17,8.24-25.54.33-.8-1-1.66-1.62-1-6.3,4.77-12.85,9.2-19.09,14-.88.57-1.7,1.23-2.61,1.77-5.15-3.66-10.16-7.5-15.35-11.11-2.17-1.64-4.37-3.23-6.57-4.83-.61-.45-1.8,0-1.5.86,2.8,8.49,5.61,17,8.29,25.52.2.44-.35.71-.57,1-4.61,3.09-9.82,5.67-15.48,5.83-3.34-.14-6.8-.92-9.29-3.28-4.75-4.2-6.39-10.84-6.49-17A28.82,28.82,0,0,1,65,111a40,40,0,0,1,8.36-11.07,45.06,45.06,0,0,1,9.31-6.61A50.14,50.14,0,0,1,90.39,90.36Z" transform="translate(-62.11 -81.48)"/><path class="cls-3" d="M80,119a1.6,1.6,0,0,1,2.18,0l7,5.18a1.53,1.53,0,0,0,.86.38c1.2,2.81,1.92,5.78,2.94,8.65.29.81.54,1.65.81,2.47.11.32.17.62-.17.85a34.41,34.41,0,0,1-7,4.12c-1-3.78-2.37-7.48-3.57-11.22-1-3-1.91-6-2.89-9A4.59,4.59,0,0,1,80,119Z" transform="translate(-62.11 -81.48)"/><path class="cls-4" d="M140.73,167.12H114.25a6.77,6.77,0,0,1,.7-2.36c1.07-3.48,2.23-6.94,3.33-10.42.13-.41.33-.59.73-.58h1.25c.18.25.45.2.7.2h8.26c.25,0,.52,0,.7-.2l1,.05a22.09,22.09,0,0,0,3.61,2.8c3.64,2.71,7.33,5.36,11,8,.23.17.42.39.64.58a1,1,0,0,1,.36,1.11,1.14,1.14,0,0,1-1.12.76C143.82,167.1,142.27,167.12,140.73,167.12Z" transform="translate(-62.11 -81.48)"/><path class="cls-5" d="M86.2,155.39a47.39,47.39,0,0,1,13.7-1.87c2.77,8.59,5.48,17.21,8.26,25.8.2.69,1,.7,1.54.4-.58,2.76-1.77,5.34-2.45,8.08a24.38,24.38,0,0,1-1.23,3.35c-.46.76-1.62.31-1.74-.47-2.49-7.8-5-15.6-7.47-23.4a13.44,13.44,0,0,0-.73-1.95,6.25,6.25,0,0,0-1.56-.14,43.72,43.72,0,0,0-15,2.88c-1.61-.51-3-1.41-4.61-2-1.18-.46-2.39-.85-3.6-1.25A31.18,31.18,0,0,1,86.2,155.39Z" transform="translate(-62.11 -81.48)"/><path class="cls-5" d="M63.94,181.19a33.75,33.75,0,0,1,7.45-16.45c1.2.41,2.41.8,3.6,1.25,1.57.6,3,1.51,4.6,2a30.4,30.4,0,0,0-13.31,10.26C65.44,179.16,65.05,180.5,63.94,181.19Z" transform="translate(-62.11 -81.48)"/></g><text class="cls-6" transform="translate(156 45.38)">S</text><text class="cls-7" transform="translate(186.46 45.38)">T</text><text class="cls-8" transform="translate(214.97 45.38)">ARMAX</text><text class="cls-8" transform="translate(156 108.85)">R</text><text class="cls-9" transform="translate(189.9 108.85)">E</text><text class="cls-6" transform="translate(220.36 108.85)">C</text><text class="cls-8" transform="translate(258.81 108.85)">ORDZ®</text><line class="cls-10" x1="125.36" y1="5.97" x2="125.36" y2="111.58"/></svg>