<svg id="Layer_1" data-name="Layer 1" xmlns="http://www.w3.org/2000/svg" xmlns:xlink="http://www.w3.org/1999/xlink" viewBox="0 0 560 288">
    <defs>
        <style>
            path{
                fill: hsl(231, 76%, 65%);
            }
            .cls-2 {
                stroke: hsl(231, 76%, 65%);
                stroke-miterlimit: 10;
                stroke-width: 4px;
            }
            .cls-3 {
                fill: url(#linear-gradient);
            }
            .cls-4 {
                fill: hsl(231, 76%, 65%);
            }
            .cls-5 {
                fill: url(#linear-gradient-2);
            }
            .cls-6 {
                fill: url(#linear-gradient-3);
            }
            .cls-7 {
                fill: url(#linear-gradient-4);
            }
        </style>
        <linearGradient id="linear-gradient" x1="40.8" y1="228.4" x2="207.79" y2="61.4" gradientUnits="userSpaceOnUse">
            <stop offset="0" stop-color="#40aff5" />
            <stop offset="1" stop-color="#de4add" />
        </linearGradient>
        <linearGradient id="linear-gradient-2" x1="131.3" y1="177.74" x2="187.35" y2="177.74" gradientUnits="userSpaceOnUse">
            <stop offset="0" stop-color="#7b62e5" />
            <stop offset="1" stop-color="#9259e1" />
        </linearGradient>
        <linearGradient id="linear-gradient-3" x1="56.71" y1="198.73" x2="123.4" y2="198.73" gradientUnits="userSpaceOnUse">
            <stop offset="0" stop-color="#5281ec" />
            <stop offset="1" stop-color="#6f68e6" />
        </linearGradient>
        <linearGradient id="linear-gradient-4" x1="43.99" y1="199.49" x2="71.22" y2="199.49" gradientUnits="userSpaceOnUse">
            <stop offset="0" stop-color="#3e94f1" />
            <stop offset="1" stop-color="#597aeb" />
        </linearGradient>
    </defs>
    <!-- <rect class="cls-1" width="560" height="288" /> -->
    <path
        d="M273,95a15.86,15.86,0,0,1-5.75-8.55l7.24-2.85a10.64,10.64,0,0,0,2.9,5.19,7.2,7.2,0,0,0,5.13,1.94,7.46,7.46,0,0,0,4.39-1.28,4.13,4.13,0,0,0,1.83-3.57A4.64,4.64,0,0,0,287,82.11,22.64,22.64,0,0,0,280.79,79l-2.5-.91a17.25,17.25,0,0,1-6.73-4.19,9.69,9.69,0,0,1-2.79-7.1A10.71,10.71,0,0,1,270.42,61a11.41,11.41,0,0,1,4.67-4.13,15.08,15.08,0,0,1,6.84-1.51q5.54,0,8.72,2.59A13.32,13.32,0,0,1,295,64l-6.78,2.85a6.82,6.82,0,0,0-2.19-3.16,6.13,6.13,0,0,0-4-1.28,7,7,0,0,0-4.14,1.16,3.6,3.6,0,0,0-1.62,3,3.89,3.89,0,0,0,1.54,3.11,16.24,16.24,0,0,0,5.07,2.48l2.57.85a19.91,19.91,0,0,1,8.12,4.82,12.23,12.23,0,0,1,.77,14.59,12.63,12.63,0,0,1-5.27,4.14A16.86,16.86,0,0,1,282.45,98,15.52,15.52,0,0,1,273,95Z"
    />
    <path d="M311.4,63.56H300v-7.3h30.5v7.3H319.1V97.07h-7.7Z" />
    <path d="M344.4,56.26h8.84l15.33,40.81h-8.49l-3.42-9.75H341l-3.42,9.75h-8.49Zm9.75,24L350.56,70l-1.48-4.91h-.46L347.14,70l-3.65,10.26Z" />
    <path
        d="M374.1,56.26H389a14.87,14.87,0,0,1,7.09,1.65,12,12,0,0,1,4.82,4.59,13,13,0,0,1,1.71,6.64,10.77,10.77,0,0,1-2.48,7,14,14,0,0,1-6.24,4.42l-.06.4,10.95,15.68v.45h-8.84L385.39,81.74H381.8V97.07h-7.7Zm14.82,18.41a5.9,5.9,0,0,0,4.28-1.6,5.37,5.37,0,0,0,1.65-4A5.53,5.53,0,0,0,389,63.38H381.8V74.67Z"
    />
    <path d="M410.24,56.26h9.92L431,84.93h.45l10.83-28.67h10V97.07h-7.64V77l.46-6.78h-.46l-10.37,26.9h-6l-10.43-26.9h-.46l.46,6.78V97.07h-7.58Z" />
    <path d="M473,56.26h8.83l15.33,40.81h-8.49l-3.42-9.75H469.63l-3.42,9.75h-8.49Zm9.74,24L479.15,70l-1.48-4.91h-.46L475.73,70l-3.65,10.26Z" />
    <path d="M512.44,75.75,500.13,56.26h9.52l7.92,13.34H518l7.87-13.34h9.58L523.1,75.75l13.39,21.32h-9.57L518,82.37h-.45l-8.89,14.7H499.1Z" />
    <path
        d="M270.13,124.66H285a14.91,14.91,0,0,1,7.1,1.65,12,12,0,0,1,4.81,4.59,13,13,0,0,1,1.71,6.64,10.71,10.71,0,0,1-2.48,7,14,14,0,0,1-6.24,4.42l-.05.4L300.8,165v.45H292l-10.54-15.33h-3.59v15.33h-7.7ZM285,143.07a5.88,5.88,0,0,0,4.28-1.6,5.37,5.37,0,0,0,1.65-4,5.51,5.51,0,0,0-5.81-5.64h-7.24v11.28Z"
    />
    <path d="M306.27,124.66h25.88V132H314v9.46h16.36v7.29H314v9.47h18.18v7.29H306.27Z" />
    <path
        d="M347.42,163.56a20.72,20.72,0,0,1-7.72-7.69,22.11,22.11,0,0,1,0-21.61,20.79,20.79,0,0,1,7.72-7.69,21.34,21.34,0,0,1,10.83-2.82,19.72,19.72,0,0,1,15.28,6.67l-5.41,5.24a12.37,12.37,0,0,0-9.81-4.62,14.09,14.09,0,0,0-6.95,1.74,12.5,12.5,0,0,0-4.93,4.93,15.93,15.93,0,0,0,0,14.71,12.5,12.5,0,0,0,4.93,4.93,14.09,14.09,0,0,0,6.95,1.74,13.31,13.31,0,0,0,10.77-5.36l5.48,5.19a20.22,20.22,0,0,1-7.16,5.55,22.5,22.5,0,0,1-20-.91Z"
    />
    <path
        d="M389,163.56a20.45,20.45,0,0,1-7.67-7.72,22.2,22.2,0,0,1,0-21.55,20.52,20.52,0,0,1,7.67-7.72,22.3,22.3,0,0,1,21.71,0,20.52,20.52,0,0,1,7.67,7.72,22.2,22.2,0,0,1,0,21.55,20.45,20.45,0,0,1-7.67,7.72,22.3,22.3,0,0,1-21.71,0Zm17.75-6.24a12.71,12.71,0,0,0,4.93-5,15.68,15.68,0,0,0,0-14.59,12.71,12.71,0,0,0-4.93-5,13.78,13.78,0,0,0-6.89-1.77,13.63,13.63,0,0,0-6.87,1.77,12.79,12.79,0,0,0-4.91,5,15.76,15.76,0,0,0,0,14.59,12.79,12.79,0,0,0,4.91,5,13.63,13.63,0,0,0,6.87,1.77A13.78,13.78,0,0,0,406.76,157.32Z"
    />
    <path
        d="M428.48,124.66h14.88a14.9,14.9,0,0,1,7.09,1.65,12,12,0,0,1,4.82,4.59,13,13,0,0,1,1.71,6.64,10.77,10.77,0,0,1-2.48,7,14,14,0,0,1-6.24,4.42l-.06.4L459.14,165v.45h-8.83l-10.55-15.33h-3.59v15.33h-7.69Zm14.82,18.41a5.86,5.86,0,0,0,4.27-1.6,5.35,5.35,0,0,0,1.66-4,5.51,5.51,0,0,0-5.82-5.64h-7.24v11.28Z"
    />
    <path d="M464.62,124.66h13.79a23,23,0,0,1,11.12,2.56,18,18,0,0,1,7.29,7.19,23.37,23.37,0,0,1,0,21.31,18,18,0,0,1-7.29,7.19,23,23,0,0,1-11.12,2.56H464.62Zm13.45,33.52q6.62,0,10.09-3.51t3.47-9.6q0-6.1-3.47-9.61T478.07,132h-5.76v26.22Z" />
    <path d="M504.23,157.72,524.92,132H505.14v-7.3h28.73v7.75l-20.46,25.77H534.1v7.29H504.23Z" />
    <path
        d="M273,231.76a15.86,15.86,0,0,1-5.75-8.55l7.24-2.85a10.64,10.64,0,0,0,2.9,5.19,7.2,7.2,0,0,0,5.13,1.94,7.46,7.46,0,0,0,4.39-1.28,4.13,4.13,0,0,0,1.83-3.57,4.64,4.64,0,0,0-1.74-3.73,22.64,22.64,0,0,0-6.19-3.11l-2.5-.91a17.25,17.25,0,0,1-6.73-4.19,9.66,9.66,0,0,1-2.79-7.09,10.72,10.72,0,0,1,1.65-5.82,11.41,11.41,0,0,1,4.67-4.13,15.08,15.08,0,0,1,6.84-1.51q5.54,0,8.72,2.59a13.38,13.38,0,0,1,4.39,6.07l-6.78,2.85a6.82,6.82,0,0,0-2.19-3.16,6.13,6.13,0,0,0-4-1.28,7,7,0,0,0-4.14,1.16,3.6,3.6,0,0,0-1.62,3.05,3.89,3.89,0,0,0,1.54,3.11A16.24,16.24,0,0,0,282.9,209l2.57.86a19.79,19.79,0,0,1,8.12,4.81,12.23,12.23,0,0,1,.77,14.59,12.63,12.63,0,0,1-5.27,4.14,16.86,16.86,0,0,1-6.64,1.36A15.52,15.52,0,0,1,273,231.76Z"
    />
    <path d="M311.4,200.36H300v-7.3h30.5v7.3H319.1v33.51h-7.7Z" />
    <path
        d="M343.41,232.73a13.87,13.87,0,0,1-5.53-5.93,20,20,0,0,1-2-9.17V193.06h7.64v25a10.3,10.3,0,0,0,2.14,6.81,8.39,8.39,0,0,0,12.14,0,10.36,10.36,0,0,0,2.14-6.81v-25h7.63v24.57a19.81,19.81,0,0,1-1.93,9,14.56,14.56,0,0,1-5.53,6,16,16,0,0,1-8.38,2.16A16.41,16.41,0,0,1,343.41,232.73Z"
    />
    <path
        d="M376.21,193.06H390a23.11,23.11,0,0,1,11.12,2.56,18,18,0,0,1,7.3,7.19,23.45,23.45,0,0,1,0,21.31,18,18,0,0,1-7.3,7.19A23,23,0,0,1,390,233.87H376.21Zm13.45,33.52q6.61,0,10.09-3.51t3.48-9.6q0-6.1-3.48-9.61t-10.09-3.5h-5.75v26.22Z"
    />
    <path d="M418.28,193.06H426v40.81h-7.69Z" />
    <path
        d="M443.1,232a20.45,20.45,0,0,1-7.67-7.72,22.2,22.2,0,0,1,0-21.55A20.52,20.52,0,0,1,443.1,195a22.32,22.32,0,0,1,21.72,0,20.57,20.57,0,0,1,7.66,7.72,22.2,22.2,0,0,1,0,21.55,20.5,20.5,0,0,1-7.66,7.72,22.32,22.32,0,0,1-21.72,0Zm17.75-6.24a12.71,12.71,0,0,0,4.93-5,15.68,15.68,0,0,0,0-14.59,12.71,12.71,0,0,0-4.93-5,13.78,13.78,0,0,0-6.89-1.77,13.63,13.63,0,0,0-6.87,1.77,12.77,12.77,0,0,0-4.9,5,15.68,15.68,0,0,0,0,14.59,12.77,12.77,0,0,0,4.9,5,13.63,13.63,0,0,0,6.87,1.77A13.78,13.78,0,0,0,460.85,225.72Z"
    />
    <path
        d="M485.42,231.76a15.88,15.88,0,0,1-5.76-8.55l7.24-2.85a10.65,10.65,0,0,0,2.91,5.19,7.2,7.2,0,0,0,5.13,1.94,7.48,7.48,0,0,0,4.39-1.28,4.14,4.14,0,0,0,1.82-3.57,4.64,4.64,0,0,0-1.74-3.73,22.69,22.69,0,0,0-6.18-3.11l-2.51-.91A17.29,17.29,0,0,1,484,210.7a9.63,9.63,0,0,1-2.8-7.09,10.64,10.64,0,0,1,1.66-5.82,11.34,11.34,0,0,1,4.67-4.13,15,15,0,0,1,6.84-1.51q5.52,0,8.72,2.59a13.45,13.45,0,0,1,4.39,6.07l-6.78,2.85a6.77,6.77,0,0,0-2.2-3.16,6.09,6.09,0,0,0-4-1.28,7,7,0,0,0-4.13,1.16,3.6,3.6,0,0,0-1.62,3.05,3.89,3.89,0,0,0,1.54,3.11,16.24,16.24,0,0,0,5.07,2.48l2.56.86a19.84,19.84,0,0,1,8.13,4.81,12.23,12.23,0,0,1,.77,14.59,12.6,12.6,0,0,1-5.28,4.14,16.82,16.82,0,0,1-6.64,1.36A15.51,15.51,0,0,1,485.42,231.76Z"
    />
    <path
        d="M520.08,216.6a13,13,0,0,1-4.79-4.79,13,13,0,0,1,0-13.11,13,13,0,0,1,4.79-4.78,13,13,0,0,1,13.11,0A13,13,0,0,1,538,198.7a13,13,0,0,1,0,13.11,13.07,13.07,0,0,1-4.78,4.79,13,13,0,0,1-13.11,0Zm11.77-2.36a10.59,10.59,0,0,0,3.76-3.79,10.44,10.44,0,0,0,0-10.41,10.58,10.58,0,0,0-3.76-3.76,10.38,10.38,0,0,0-10.41,0,10.51,10.51,0,0,0-3.79,3.76,10.1,10.1,0,0,0-1.39,5.22,9.83,9.83,0,0,0,1.42,5.16,11,11,0,0,0,3.79,3.79,9.83,9.83,0,0,0,5.16,1.42A10.1,10.1,0,0,0,531.85,214.24Zm-9.61-15.42h5.47a4.11,4.11,0,0,1,2.91,1.19,3.87,3.87,0,0,1,1.26,2.91,3.76,3.76,0,0,1-.83,2.37,3.85,3.85,0,0,1-2,1.39l-.11.12,3.42,4.78v.12h-3l-3.14-4.79h-1.37v4.79h-2.62Zm5.25,5.7a1.79,1.79,0,0,0,1.25-.46,1.45,1.45,0,0,0,.51-1.14,1.52,1.52,0,0,0-.48-1.11,1.67,1.67,0,0,0-1.23-.48h-2.68v3.19Z"
    />
    <line class="cls-2" x1="246.08" y1="33.14" x2="246.08" y2="248.5" />
    <path
        class="cls-3"
        d="M89.89,56.12A58.76,58.76,0,0,1,101.8,54q48.69.45,97.39,0A7.24,7.24,0,0,1,204,63.23c-1.51,5.74-3.91,11.22-5.47,17-2.7,7.69-5.27,15.41-7.78,23.15-2.34,7.63-5.53,15.12-7.34,22.82a54,54,0,0,1,22.06,24.45c1.66,5.11,3.26,10.27,3.68,15.66a90.78,90.78,0,0,0-.07,9.62c-.33,3-.84,6-1.43,9a69.6,69.6,0,0,1-12.64,25c-4.61,5.95-10.58,10.57-16.77,14.74a71.55,71.55,0,0,1-17.18,7.61c-10.35,3-21.23,2.19-31.87,2.3-10.86,0-21.73-.09-32.6.05-9.88-.12-19.76-.1-29.64,0-7.79-1.65-19.69,4.18-24.15-4.86a76.4,76.4,0,0,1,4.12-27A67.5,67.5,0,0,1,57.19,185.2a77.13,77.13,0,0,1,11.63-9.53,61,61,0,0,1,18.25-7.37c6.4-1.07,12.86-2.25,19.38-1.78,5.1,14.71,9.47,29.67,14.35,44.45.24,1.27,1.66.76,2.57.77,3-8.37,5.59-16.94,8.42-25.39,2.4-6.64,4.13-13.52,6.63-20.12,16,.11,32.14.71,48-.24.79-.23.64-1.71.17-2.19-12.42-9.7-26.12-18.28-38.12-28.27,4.45-14.79,9.55-29.56,14.3-44.31.57-1.39-1.74-2.89-2.81-1.69-10.93,8.27-22.3,16-33.12,24.38-1.54,1-3,2.15-4.54,3.08-8.94-6.35-17.64-13-26.64-19.28-3.76-2.85-7.59-5.62-11.4-8.38-1.06-.8-3.12,0-2.61,1.48C86.51,105.54,91.37,120.3,96,135.1c.35.77-.59,1.24-1,1.76-8,5.36-17,9.84-26.88,10.12-5.78-.24-11.79-1.6-16.11-5.7C43.81,134,41,122.46,40.79,111.85A49.92,49.92,0,0,1,45.72,92.1a70.32,70.32,0,0,1,14.5-19.22A78.31,78.31,0,0,1,76.39,61.42,85.38,85.38,0,0,1,89.89,56.12Z"
    />
    <path
        class="cls-4"
        d="M71.87,105.84a2.79,2.79,0,0,1,3.78,0q6.07,4.52,12.15,9a2.84,2.84,0,0,0,1.5.66c2.07,4.87,3.33,10,5.1,15,.5,1.42.93,2.87,1.41,4.29.19.57.29,1.08-.3,1.48-3.9,2.69-7.78,5.42-12.23,7.16-1.83-6.57-4.12-13-6.2-19.49-1.67-5.22-3.32-10.46-5-15.68A8.62,8.62,0,0,1,71.87,105.84Z"
    />
    <path
        class="cls-5"
        d="M177.26,189.34H145.75l-14.45,0c-.08-1.51.78-2.75,1.2-4.1,1.88-6,3.89-12,5.8-18.07.22-.72.56-1,1.26-1l2.17.05c.31.43.78.34,1.22.34h14.33c.43,0,.9.09,1.22-.34l1.65.08c1.78,2,4.14,3.29,6.25,4.86,6.33,4.7,12.73,9.3,19.09,14,.4.3.73.69,1.12,1a1.61,1.61,0,0,1,.61,1.93,2,2,0,0,1-1.93,1.31C182.61,189.31,179.93,189.33,177.26,189.34Z"
    />
    <path
        class="cls-6"
        d="M82.61,169a81.35,81.35,0,0,1,23.78-3.24c4.82,14.91,9.51,29.87,14.33,44.78.35,1.18,1.78,1.2,2.68.68-1,4.8-3.07,9.28-4.25,14A45.93,45.93,0,0,1,117,231c-.79,1.32-2.81.55-3-.81-4.32-13.54-8.67-27.07-13-40.6a22.25,22.25,0,0,0-1.27-3.39,10.62,10.62,0,0,0-2.7-.25A76.13,76.13,0,0,0,71,191c-2.78-.89-5.27-2.45-8-3.49-2.06-.8-4.16-1.47-6.25-2.17A54.11,54.11,0,0,1,82.61,169Z"
    />
    <path class="cls-7" d="M44,213.76c1.79-10.4,6-20.56,13-28.54,2.09.7,4.19,1.37,6.25,2.17,2.72,1,5.21,2.6,8,3.49-9.1,3.7-17.45,9.65-23.17,17.71C46.58,210.23,45.91,212.56,44,213.76Z" />
</svg>
