<svg id="Layer_1" data-name="Layer 1" xmlns="http://www.w3.org/2000/svg" xmlns:xlink="http://www.w3.org/1999/xlink" viewBox="0 0 257.96 276.94"><defs><style>.cls-1{opacity:0.9;}.cls-2{fill:url(#linear-gradient);}.cls-3{fill:#f06696;}.cls-4{fill:#e55e88;}.cls-5{fill:#e55095;}</style><linearGradient id="linear-gradient" x1="230.38" y1="209.31" x2="486.16" y2="465.08" gradientTransform="matrix(1, 0, 0, -1, -61.71, 758.77)" gradientUnits="userSpaceOnUse"><stop offset="0" stop-color="#e9569f"/><stop offset="1" stop-color="#fdbb43"/></linearGradient></defs><g class="cls-1"><path class="cls-2" d="M243.87,285.69a88.83,88.83,0,0,1,18.24-3.21q74.63.66,149.24,0a11.11,11.11,0,0,1,7.45,13.84c0,.09-.05.17-.08.25-2.31,8.78-6,17.18-8.38,26-4.12,11.78-8,23.61-11.94,35.47s-8.46,23.17-11.22,35A82.91,82.91,0,0,1,421,430.44a106.52,106.52,0,0,1,5.64,23.94,134,134,0,0,0,0,14.73c-.51,4.6-1.28,9.2-2.21,13.75a106.16,106.16,0,0,1-19.36,38.29,107.74,107.74,0,0,1-25.69,22.58A109.9,109.9,0,0,1,353,555.38c-15.95,4.68-32.52,3.38-48.82,3.54s-33.33,0-50,0c-15.14-.19-30.27-.16-45.43,0-11.91-2.66-30.15,6.41-37-7.45A116.9,116.9,0,0,1,178.13,510a103.16,103.16,0,0,1,15.74-26.59,117.37,117.37,0,0,1,17.82-14.63,93.67,93.67,0,0,1,28-11.27,124.9,124.9,0,0,1,29.68-2.66c7.82,22.52,14.52,45.47,22,68.13.37,1.94,2.65,1.14,3.93,1.17,4.68-12.84,8.56-26,12.93-38.91,3.67-10.18,6.3-20.71,10.13-30.82,24.46.16,49.25,1.06,73.53-.37,1.22-.35,1-2.66.29-3.38-19-14.86-40-28-58.5-43.29,6.83-22.69,14.62-45.21,21.91-67.92.88-2.13-2.66-4.42-4.31-2.66-16.75,12.68-34.17,24.46-50.77,37.23-2.34,1.51-4.52,3.27-6.94,4.71-13.69-9.74-27-19.95-40.82-29.55-5.77-4.36-11.62-8.59-17.47-12.85-1.62-1.19-4.79,0-4,2.29,7.45,22.58,14.92,45.21,22.05,67.87.53,1.17-.93,1.89-1.52,2.66-12.26,8.22-26.11,15.08-41.17,15.5-8.88-.37-18.08-2.44-24.7-8.72-12.63-11.17-17-28.83-17.26-45.21a76.42,76.42,0,0,1,7.55-30.26A106.54,106.54,0,0,1,198.44,311a118.47,118.47,0,0,1,24.76-17.58A132.24,132.24,0,0,1,243.87,285.69Z" transform="translate(-168.66 -282.48)"/><path class="cls-3" d="M216.26,361.88a4.24,4.24,0,0,1,5.8,0l18.61,13.78a4.26,4.26,0,0,0,2.29,1c3.19,7.47,5.11,15.37,7.82,23,.77,2.16,1.44,4.39,2.15,6.57.3.85.46,1.65-.45,2.26a92.82,92.82,0,0,1-18.61,11c-2.66-10-6.31-19.89-9.5-29.84-2.66-8-5.08-15.95-7.68-23.93A11.94,11.94,0,0,1,216.26,361.88Z" transform="translate(-168.66 -282.48)"/><path class="cls-4" d="M377.74,489.83H307.32a17.94,17.94,0,0,1,1.86-6.28c2.84-9.25,5.93-18.45,8.86-27.71.34-1.09.87-1.57,1.94-1.54h3.32c.48.66,1.2.53,1.86.53h22c.66,0,1.38.13,1.86-.53l2.53.13a58.74,58.74,0,0,0,9.6,7.45c9.68,7.2,19.49,14.25,29.25,21.27.61.45,1.12,1,1.7,1.54a2.51,2.51,0,0,1,1,3,3.06,3.06,0,0,1-3,2C386,489.77,381.83,489.83,377.74,489.83Z" transform="translate(-168.66 -282.48)"/><path class="cls-5" d="M232.72,458.63a125.11,125.11,0,0,1,36.44-5c7.36,22.84,14.57,45.77,22,68.61.53,1.84,2.66,1.86,4.1,1.07-1.54,7.34-4.71,14.2-6.52,21.48a70.37,70.37,0,0,1-3.27,8.91c-1.22,2-4.31.83-4.63-1.25-6.62-20.74-13.29-41.48-19.86-62.23a35.48,35.48,0,0,0-1.94-5.18,16.55,16.55,0,0,0-4.15-.38A116.25,116.25,0,0,0,215,492.35c-4.28-1.35-8-3.75-12.26-5.31-3.14-1.23-6.36-2.27-9.58-3.33A83,83,0,0,1,232.72,458.63Z" transform="translate(-168.66 -282.48)"/><path class="cls-5" d="M173.52,527.24a89.54,89.54,0,0,1,19.82-43.74c3.19,1.09,6.41,2.13,9.57,3.32,4.18,1.6,8,4,12.23,5.32a80.64,80.64,0,0,0-35.39,27.29C177.51,521.85,176.48,525.41,173.52,527.24Z" transform="translate(-168.66 -282.48)"/></g></svg>