<svg xmlns="http://www.w3.org/2000/svg" xmlns:xlink="http://www.w3.org/1999/xlink"
	   viewBox="0 0 100 100">

	<style>
    path {
      fill: #369ff4;
    }
  </style>

<g>
	<path d="M9.3,2.6c5.3,0,10.5,0,15.8,0c1.2,0,2.3,0,3.5,0.1c0.7,0.1,1.4,0.1,1.9,0.6c0.5,0.4,1,0.8,1.5,1.3c0,6.9,0.2,13.9,0.1,20.8
		c0,1.3,0,2.6-0.2,3.9c0,0.3-0.3,0.6-0.4,0.8c-1.2,1.6-2.6,3-3.9,4.5c-3,3.3-6,6.6-9,9.8c-1.7,1.7-3.3,3.5-5,5.2
		c-0.5,0.4-0.9,0.9-1.4,1.2c-1.5,0.8-3.5,0.2-4.4-1.3c-0.3-0.8-0.3-1.6-0.4-2.4c-0.1-3-0.1-6-0.1-9c0-11.2,0-22.3,0-33.5
		C8,4,8.6,3.2,9.3,2.6z"/>

	<path d="M66.5,2.6c8.7,0,17.5,0,26.2,0c0.6,0.7,1.4,1.3,1.8,2.2c0.2,0.5,0.3,1,0.2,1.5c-0.2,0.6-0.6,1-0.9,1.5
		c-1.1,1.5-2.4,2.9-3.6,4.4c-5.3,6-10.7,11.9-16.1,17.8c-12.6,13.8-25.3,27.6-38,41.4C29.5,78.5,23,85.6,16.4,92.6
		c-1.4,1.4-2.7,2.9-4.1,4.3c-1.5,0.8-3.5,0.3-4.4-1.1c-0.3-0.6-0.3-1.4-0.4-2.1c-0.2-3.2-0.1-6.3-0.1-9.5c0-3.5,0-7,0-10.4
		c0-1.9,0-3.8,0.2-5.8c0.1-0.7,0.2-1.4,0.7-2c3-3.4,6.1-6.7,9.1-10.1c12.5-13.7,25-27.4,37.6-41.1C58,11.5,61.2,8,64.4,4.6
		C65.1,4,65.8,3.3,66.5,2.6z"/>
		
	<path d="M57.1,59c0.6-0.4,1.4-0.4,2.1-0.3c0.7,0.1,1.3,0.6,1.9,1c1,0.9,1.9,1.8,2.8,2.8c4,4.2,7.8,8.4,11.7,12.7
		c3.2,3.5,6.5,7,9.7,10.6c1.7,1.9,3.5,3.8,5.2,5.9c0.5,0.6,1,1.3,1,2.1c0,0.8-0.2,1.7-0.7,2.3c-0.4,0.5-0.9,0.9-1.3,1.4
		c-8.7,0-17.5,0-26.2,0c-1.9-1.8-3.6-3.7-5.4-5.6c-4.2-4.6-8.4-9.2-12.6-13.8c-0.7-0.8-1.5-1.6-1.7-2.7c-0.1-1.1,0.6-2.1,1.2-3
		c1.4-1.9,3.1-3.6,4.7-5.3c1.8-2,3.6-3.9,5.4-5.8C55.6,60.4,56.3,59.6,57.1,59z"/>
</g>

</svg>
